<svg width="22" height="23" viewBox="0 0 22 23" fill="none" xmlns="http://www.w3.org/2000/svg">
<path d="M1 6.11572H21" stroke="black" stroke-width="2" stroke-linecap="round" stroke-linejoin="round"/>
<path d="M3.5 6.11572H18.5V19.9619C18.5 20.3699 18.3243 20.7613 18.0118 21.0497C17.6993 21.3382 17.2753 21.5003 16.8333 21.5003H5.16667C4.72463 21.5003 4.30072 21.3382 3.98815 21.0497C3.6756 20.7613 3.5 20.3699 3.5 19.9619V6.11572Z" stroke="black" stroke-width="2" stroke-linecap="round" stroke-linejoin="round"/>
<path d="M6.83301 6.11538V5.34615C6.83301 4.32609 7.27199 3.3478 8.05339 2.62651C8.83479 1.90522 9.89461 1.5 10.9997 1.5C12.1047 1.5 13.1646 1.90522 13.946 2.62651C14.7274 3.3478 15.1663 4.32609 15.1663 5.34615V6.11538" stroke="black" stroke-width="2" stroke-linecap="round" stroke-linejoin="round"/>
<path d="M8.5 10.7329V16.8891" stroke="black" stroke-width="2" stroke-linecap="round" stroke-linejoin="round"/>
<path d="M13.5 10.7329V16.8891" stroke="black" stroke-width="2" stroke-linecap="round" stroke-linejoin="round"/>
</svg>
